<?xml version="1.0" encoding="UTF-8"?>
<!DOCTYPE svg PUBLIC "-//W3C//DTD SVG 1.1//EN" "http://www.w3.org/Graphics/SVG/1.1/DTD/svg11.dtd">
<svg xmlns="http://www.w3.org/2000/svg" version="1.1" width="512px" height="512px" style="shape-rendering:geometricPrecision; text-rendering:geometricPrecision; image-rendering:optimizeQuality; fill-rule:evenodd; clip-rule:evenodd" xmlns:xlink="http://www.w3.org/1999/xlink">
<g><path style="opacity:0.979" fill="#fe6236" d="M 469.5,-0.5 C 473.167,-0.5 476.833,-0.5 480.5,-0.5C 489.405,5.45374 491.238,13.1204 486,22.5C 484.269,24.6166 482.102,26.1166 479.5,27C 468.23,30.4835 456.897,33.6502 445.5,36.5C 442.238,28.7145 439.572,20.7145 437.5,12.5C 448.167,8.16667 458.833,3.83333 469.5,-0.5 Z"/></g>
<g><path style="opacity:1" fill="#110603" d="M 437.5,12.5 C 439.572,20.7145 442.238,28.7145 445.5,36.5C 441.499,38.5889 437.165,39.9223 432.5,40.5C 430.031,32.4262 427.364,24.4262 424.5,16.5C 428.702,14.7661 433.035,13.4328 437.5,12.5 Z"/></g>
<g><path style="opacity:0.971" fill="#fe6336" d="M 424.5,16.5 C 427.364,24.4262 430.031,32.4262 432.5,40.5C 365.44,61.0723 298.106,81.0723 230.5,100.5C 224.95,101.796 219.617,103.463 214.5,105.5C 211.933,105.721 209.599,106.388 207.5,107.5C 203.098,107.926 199.098,109.26 195.5,111.5C 193.585,111.216 191.919,111.549 190.5,112.5C 185.097,113.685 179.763,115.185 174.5,117C 173.944,117.383 173.611,117.883 173.5,118.5C 169.414,119.083 165.414,120.083 161.5,121.5C 159.261,121.426 158.261,120.259 158.5,118C 158.833,117.167 159.167,116.333 159.5,115.5C 164.038,113.432 168.705,111.765 173.5,110.5C 179.167,108.5 184.833,106.5 190.5,104.5C 192.167,103.833 193.833,103.167 195.5,102.5C 207.436,98.1953 219.102,93.5286 230.5,88.5C 295.379,65.0601 360.045,41.0601 424.5,16.5 Z"/></g>
<g><path style="opacity:0.974" fill="#fe6236" d="M 456.5,103.5 C 455.992,94.7712 454.992,86.1045 453.5,77.5C 465.811,73.7401 478.478,71.5734 491.5,71C 501.803,76.5775 503.97,84.4108 498,94.5C 496.421,96.0412 494.587,97.2078 492.5,98C 480.552,100.159 468.552,101.993 456.5,103.5 Z"/></g>
<g><path style="opacity:1" fill="#0f0502" d="M 453.5,77.5 C 454.992,86.1045 455.992,94.7712 456.5,103.5C 452.534,104.162 448.534,104.495 444.5,104.5C 443.081,96.3123 441.747,87.979 440.5,79.5C 444.79,78.5755 449.124,77.9088 453.5,77.5 Z"/></g>
<g><path style="opacity:0.967" fill="#fe6236" d="M 440.5,79.5 C 441.747,87.979 443.081,96.3123 444.5,104.5C 373.31,114.651 301.977,124.651 230.5,134.5C 230.5,130.5 230.5,126.5 230.5,122.5C 300.567,108.483 370.567,94.1499 440.5,79.5 Z"/></g>
<g><path style="opacity:0.952" fill="#ffd127" d="M 230.5,88.5 C 219.102,93.5286 207.436,98.1953 195.5,102.5C 195.665,99.1501 195.498,95.8168 195,92.5C 193.951,91.4829 192.784,91.3162 191.5,92C 190.536,96.0659 190.203,100.233 190.5,104.5C 184.833,106.5 179.167,108.5 173.5,110.5C 173.334,102.826 173.5,95.1594 174,87.5C 176.919,81.9752 181.419,80.1419 187.5,82C 189.624,83.1217 191.457,84.6217 193,86.5C 196.394,81.9179 200.894,80.4179 206.5,82C 208.64,82.9733 210.307,84.4733 211.5,86.5C 214.669,81.8821 219.002,80.3821 224.5,82C 228.061,82.7277 230.061,84.8943 230.5,88.5 Z"/></g>
<g><path style="opacity:1" fill="#ffa72d" d="M 195.5,102.5 C 193.833,103.167 192.167,103.833 190.5,104.5C 190.203,100.233 190.536,96.0659 191.5,92C 192.784,91.3162 193.951,91.4829 195,92.5C 195.498,95.8168 195.665,99.1501 195.5,102.5 Z"/></g>
<g><path style="opacity:0.997" fill="#fed227" d="M 230.5,100.5 C 230.5,107.833 230.5,115.167 230.5,122.5C 230.5,126.5 230.5,130.5 230.5,134.5C 230.5,141.833 230.5,149.167 230.5,156.5C 230.5,160.5 230.5,164.5 230.5,168.5C 230.5,170.167 230.5,171.833 230.5,173.5C 230.5,186.167 230.5,198.833 230.5,211.5C 229.504,211.414 228.671,211.748 228,212.5C 227.5,226.496 227.333,240.496 227.5,254.5C 223.167,254.5 218.833,254.5 214.5,254.5C 214.5,204.833 214.5,155.167 214.5,105.5C 219.617,103.463 224.95,101.796 230.5,100.5 Z"/></g>
<g><path style="opacity:1" fill="#ffa92d" d="M 214.5,105.5 C 214.5,155.167 214.5,204.833 214.5,254.5C 212.5,254.5 210.5,254.5 208.5,254.5C 208.832,205.33 208.499,156.33 207.5,107.5C 209.599,106.388 211.933,105.721 214.5,105.5 Z"/></g>
<g><path style="opacity:1" fill="#ffd227" d="M 207.5,107.5 C 208.499,156.33 208.832,205.33 208.5,254.5C 204.167,254.5 199.833,254.5 195.5,254.5C 195.5,206.833 195.5,159.167 195.5,111.5C 199.098,109.26 203.098,107.926 207.5,107.5 Z"/></g>
<g><path style="opacity:1" fill="#ffa62e" d="M 195.5,111.5 C 195.5,159.167 195.5,206.833 195.5,254.5C 193.833,254.5 192.167,254.5 190.5,254.5C 190.5,207.167 190.5,159.833 190.5,112.5C 191.919,111.549 193.585,111.216 195.5,111.5 Z"/></g>
<g><path style="opacity:0.992" fill="#fed128" d="M 190.5,112.5 C 190.5,159.833 190.5,207.167 190.5,254.5C 185.833,254.5 181.167,254.5 176.5,254.5C 176.667,226.165 176.5,197.831 176,169.5C 174.667,168.167 173.333,168.167 172,169.5C 171.501,174.489 171.334,179.489 171.5,184.5C 143.182,166.502 114.516,166.002 85.5,183C 82.6693,185.001 80.0026,187.167 77.5,189.5C 67.0266,183.82 59.5266,186.487 55,197.5C 54.3168,203.137 56.1501,207.803 60.5,211.5C 53.7196,223.964 51.0529,237.297 52.5,251.5C 46.1667,251.5 39.8333,251.5 33.5,251.5C 32.9762,208.545 51.9762,177.712 90.5,159C 102.675,154.026 115.341,151.526 128.5,151.5C 144.105,151.401 158.771,155.068 172.5,162.5C 173.497,155.866 173.83,149.2 173.5,142.5C 174.767,139.728 174.767,137.061 173.5,134.5C 173.5,129.167 173.5,123.833 173.5,118.5C 173.611,117.883 173.944,117.383 174.5,117C 179.763,115.185 185.097,113.685 190.5,112.5 Z"/></g>
<g><path style="opacity:0.885" fill="#ff6636" d="M 173.5,134.5 C 174.767,137.061 174.767,139.728 173.5,142.5C 168.828,143.003 164.161,143.169 159.5,143C 158.167,141.333 158.167,139.667 159.5,138C 164.187,136.764 168.853,135.598 173.5,134.5 Z"/></g>
<g><path style="opacity:0.997" fill="#9264fe" d="M 128.5,151.5 C 115.341,151.526 102.675,154.026 90.5,159C 51.9762,177.712 32.9762,208.545 33.5,251.5C 33.5,251.833 33.5,252.167 33.5,252.5C 29.1667,252.5 24.8333,252.5 20.5,252.5C 20.2865,254.144 20.6198,255.644 21.5,257C 39.8333,257.167 58.1667,257.333 76.5,257.5C 152.525,256.05 228.525,255.05 304.5,254.5C 304.5,252.5 304.5,250.5 304.5,248.5C 305.477,245.713 305.81,242.713 305.5,239.5C 306.857,233.69 307.857,227.69 308.5,221.5C 309.468,219.393 309.802,217.059 309.5,214.5C 310.965,206.908 311.965,199.241 312.5,191.5C 314.581,175.098 317.081,158.765 320,142.5C 320.903,141.299 322.069,140.465 323.5,140C 355.586,139.015 387.586,139.348 419.5,141C 421.871,143.674 423.037,146.841 423,150.5C 427.882,185.17 432.715,219.837 437.5,254.5C 433.833,254.5 430.167,254.5 426.5,254.5C 426.389,253.883 426.056,253.383 425.5,253C 388.502,252.5 351.502,252.333 314.5,252.5C 314.286,254.144 314.62,255.644 315.5,257C 324.827,257.5 334.161,257.666 343.5,257.5C 330.466,267.19 317.133,276.523 303.5,285.5C 304.664,276.185 305.664,266.852 306.5,257.5C 303.14,256.79 301.307,258.124 301,261.5C 290.589,341.784 280.923,422.117 272,502.5C 273.333,503.833 274.667,503.833 276,502.5C 278.073,492.247 279.573,481.914 280.5,471.5C 327.167,438.833 373.833,406.167 420.5,373.5C 418.708,389.712 416.375,405.712 413.5,421.5C 370.953,451.267 328.62,481.267 286.5,511.5C 207.167,511.5 127.833,511.5 48.5,511.5C 46.7304,509.887 45.5637,507.887 45,505.5C 33.1667,422 21.3333,338.5 9.5,255C 14.6667,218.167 19.8333,181.333 25,144.5C 25.8333,142.333 27.3333,140.833 29.5,140C 60.8333,139.333 92.1667,139.333 123.5,140C 127.907,142.532 129.574,146.365 128.5,151.5 Z"/></g>
<g><path style="opacity:0.983" fill="#0b9930" d="M 272.5,186.5 C 275.169,189.178 277.503,192.178 279.5,195.5C 279.333,196.167 279.167,196.833 279,197.5C 275.926,200.286 272.759,202.952 269.5,205.5C 268.691,207.071 268.357,208.738 268.5,210.5C 268.629,212.216 268.962,213.883 269.5,215.5C 270.786,218.335 270.786,221.168 269.5,224C 264.561,225.107 259.561,225.941 254.5,226.5C 251.925,231.397 249.259,236.23 246.5,241C 244.305,241.409 242.305,240.909 240.5,239.5C 238.492,237.732 236.326,236.066 234,234.5C 233.501,230.514 233.334,226.514 233.5,222.5C 254.397,217.385 261.897,204.385 256,183.5C 250.613,173.292 242.113,168.292 230.5,168.5C 230.5,164.5 230.5,160.5 230.5,156.5C 234.436,154.862 238.103,152.696 241.5,150C 243.5,149.333 245.5,149.333 247.5,150C 249.794,154.888 252.461,159.555 255.5,164C 259.5,164.333 263.5,164.667 267.5,165C 268.931,165.465 270.097,166.299 271,167.5C 270.928,172.243 270.094,176.91 268.5,181.5C 269.095,183.761 270.429,185.428 272.5,186.5 Z"/></g>
<g><path style="opacity:1" fill="#f8efac" d="M 230.5,168.5 C 242.113,168.292 250.613,173.292 256,183.5C 261.897,204.385 254.397,217.385 233.5,222.5C 233.5,220.5 233.5,218.5 233.5,216.5C 245.786,214.71 252.453,207.543 253.5,195C 251.443,181.775 243.777,174.609 230.5,173.5C 230.5,171.833 230.5,170.167 230.5,168.5 Z"/></g>
<g><path style="opacity:1" fill="#ff6336" d="M 176.5,254.5 C 174.833,254.5 173.167,254.5 171.5,254.5C 171.5,244.5 171.5,234.5 171.5,224.5C 171.5,220.833 171.5,217.167 171.5,213.5C 171.5,206.167 171.5,198.833 171.5,191.5C 171.5,189.167 171.5,186.833 171.5,184.5C 171.334,179.489 171.501,174.489 172,169.5C 173.333,168.167 174.667,168.167 176,169.5C 176.5,197.831 176.667,226.165 176.5,254.5 Z"/></g>
<g><path style="opacity:1" fill="#fea92d" d="M 171.5,184.5 C 171.5,186.833 171.5,189.167 171.5,191.5C 150.904,176.123 128.238,172.289 103.5,180C 95.1862,183.499 87.5195,187.999 80.5,193.5C 79.5,192.167 78.5,190.833 77.5,189.5C 80.0026,187.167 82.6693,185.001 85.5,183C 114.516,166.002 143.182,166.502 171.5,184.5 Z"/></g>
<g><path style="opacity:1" fill="#0c9932" d="M 230.5,173.5 C 243.777,174.609 251.443,181.775 253.5,195C 252.453,207.543 245.786,214.71 233.5,216.5C 233.737,215.209 233.404,214.209 232.5,213.5C 232.167,212.5 231.5,211.833 230.5,211.5C 230.5,198.833 230.5,186.167 230.5,173.5 Z"/></g>
<g><path style="opacity:1" fill="#fed227" d="M 171.5,191.5 C 171.5,198.833 171.5,206.167 171.5,213.5C 148.808,188.53 123.141,185.03 94.5,203C 79.4718,215.554 72.4718,231.72 73.5,251.5C 68.1667,251.5 62.8333,251.5 57.5,251.5C 56.974,238.128 59.6407,225.462 65.5,213.5C 75.3313,214.25 80.998,209.75 82.5,200C 82.5176,197.59 81.8509,195.423 80.5,193.5C 87.5195,187.999 95.1862,183.499 103.5,180C 128.238,172.289 150.904,176.123 171.5,191.5 Z"/></g>
<g><path style="opacity:0.984" fill="#fed228" d="M 272.5,186.5 C 280.507,186.334 288.507,186.5 296.5,187C 302.053,187.887 307.386,189.387 312.5,191.5C 311.965,199.241 310.965,206.908 309.5,214.5C 296.323,208.399 282.656,207.065 268.5,210.5C 268.357,208.738 268.691,207.071 269.5,205.5C 272.759,202.952 275.926,200.286 279,197.5C 279.167,196.833 279.333,196.167 279.5,195.5C 277.503,192.178 275.169,189.178 272.5,186.5 Z"/></g>
<g><path style="opacity:1" fill="#14992f" d="M 77.5,189.5 C 78.5,190.833 79.5,192.167 80.5,193.5C 81.8509,195.423 82.5176,197.59 82.5,200C 80.998,209.75 75.3313,214.25 65.5,213.5C 63.7162,213.107 62.0495,212.441 60.5,211.5C 56.1501,207.803 54.3168,203.137 55,197.5C 59.5266,186.487 67.0266,183.82 77.5,189.5 Z"/></g>
<g><path style="opacity:1" fill="#ffa92d" d="M 171.5,213.5 C 171.5,217.167 171.5,220.833 171.5,224.5C 159.618,203.727 141.618,194.894 117.5,198C 91.014,205.99 78.3473,223.823 79.5,251.5C 77.5,251.5 75.5,251.5 73.5,251.5C 72.4718,231.72 79.4718,215.554 94.5,203C 123.141,185.03 148.808,188.53 171.5,213.5 Z"/></g>
<g><path style="opacity:1" fill="#fed227" d="M 171.5,224.5 C 171.5,234.5 171.5,244.5 171.5,254.5C 167.167,254.5 162.833,254.5 158.5,254.5C 159.833,248.5 159.833,242.5 158.5,236.5C 164.218,224.314 160.551,216.647 147.5,213.5C 144.767,213.968 142.1,214.635 139.5,215.5C 119.821,210.422 105.655,217.089 97,235.5C 95.661,240.736 95.161,246.07 95.5,251.5C 90.1667,251.5 84.8333,251.5 79.5,251.5C 78.3473,223.823 91.014,205.99 117.5,198C 141.618,194.894 159.618,203.727 171.5,224.5 Z"/></g>
<g><path style="opacity:1" fill="#fda830" d="M 309.5,214.5 C 309.802,217.059 309.468,219.393 308.5,221.5C 304.439,218.3 299.772,216.133 294.5,215C 286.139,214.295 277.806,214.462 269.5,215.5C 268.962,213.883 268.629,212.216 268.5,210.5C 282.656,207.065 296.323,208.399 309.5,214.5 Z"/></g>
<g><path style="opacity:1" fill="#e69d28" d="M 60.5,211.5 C 62.0495,212.441 63.7162,213.107 65.5,213.5C 59.6407,225.462 56.974,238.128 57.5,251.5C 62.8333,251.5 68.1667,251.5 73.5,251.5C 75.5,251.5 77.5,251.5 79.5,251.5C 84.8333,251.5 90.1667,251.5 95.5,251.5C 97.5,251.5 99.5,251.5 101.5,251.5C 111.348,251.173 121.014,251.506 130.5,252.5C 98.1667,252.5 65.8333,252.5 33.5,252.5C 33.5,252.167 33.5,251.833 33.5,251.5C 39.8333,251.5 46.1667,251.5 52.5,251.5C 51.0529,237.297 53.7196,223.964 60.5,211.5 Z"/></g>
<g><path style="opacity:1" fill="#fe6536" d="M 230.5,211.5 C 231.5,211.833 232.167,212.5 232.5,213.5C 232.5,227.167 232.5,240.833 232.5,254.5C 230.833,254.5 229.167,254.5 227.5,254.5C 227.333,240.496 227.5,226.496 228,212.5C 228.671,211.748 229.504,211.414 230.5,211.5 Z"/></g>
<g><path style="opacity:1" fill="#fea92d" d="M 139.5,215.5 C 138.167,217.167 136.833,218.833 135.5,220.5C 112.118,217.546 100.785,227.88 101.5,251.5C 99.5,251.5 97.5,251.5 95.5,251.5C 95.161,246.07 95.661,240.736 97,235.5C 105.655,217.089 119.821,210.422 139.5,215.5 Z"/></g>
<g><path style="opacity:1" fill="#1a9a2f" d="M 158.5,236.5 C 156.999,237.752 155.332,238.752 153.5,239.5C 147.335,242.555 141.835,241.555 137,236.5C 133.103,231.46 132.603,226.127 135.5,220.5C 136.833,218.833 138.167,217.167 139.5,215.5C 142.1,214.635 144.767,213.968 147.5,213.5C 160.551,216.647 164.218,224.314 158.5,236.5 Z"/></g>
<g><path style="opacity:1" fill="#fed227" d="M 308.5,221.5 C 307.857,227.69 306.857,233.69 305.5,239.5C 291.74,229.023 277.74,228.856 263.5,239C 259.022,243.463 255.689,248.63 253.5,254.5C 247.833,254.5 242.167,254.5 236.5,254.5C 237.023,249.266 238.357,244.266 240.5,239.5C 242.305,240.909 244.305,241.409 246.5,241C 249.259,236.23 251.925,231.397 254.5,226.5C 259.561,225.941 264.561,225.107 269.5,224C 270.786,221.168 270.786,218.335 269.5,215.5C 277.806,214.462 286.139,214.295 294.5,215C 299.772,216.133 304.439,218.3 308.5,221.5 Z"/></g>
<g><path style="opacity:1" fill="#fed227" d="M 135.5,220.5 C 132.603,226.127 133.103,231.46 137,236.5C 141.835,241.555 147.335,242.555 153.5,239.5C 153.726,244.562 153.392,249.562 152.5,254.5C 144.961,255.012 137.628,254.345 130.5,252.5C 121.014,251.506 111.348,251.173 101.5,251.5C 100.785,227.88 112.118,217.546 135.5,220.5 Z"/></g>
<g><path style="opacity:1" fill="#fea92e" d="M 305.5,239.5 C 305.81,242.713 305.477,245.713 304.5,248.5C 304.607,246.097 303.607,244.264 301.5,243C 293.977,237.748 285.644,236.081 276.5,238C 268.369,240.964 262.702,246.464 259.5,254.5C 257.5,254.5 255.5,254.5 253.5,254.5C 255.689,248.63 259.022,243.463 263.5,239C 277.74,228.856 291.74,229.023 305.5,239.5 Z"/></g>
<g><path style="opacity:1" fill="#feaa2d" d="M 158.5,236.5 C 159.833,242.5 159.833,248.5 158.5,254.5C 156.5,254.5 154.5,254.5 152.5,254.5C 153.392,249.562 153.726,244.562 153.5,239.5C 155.332,238.752 156.999,237.752 158.5,236.5 Z"/></g>
<g><path style="opacity:1" fill="#f6a330" d="M 232.5,213.5 C 233.404,214.209 233.737,215.209 233.5,216.5C 233.5,218.5 233.5,220.5 233.5,222.5C 233.334,226.514 233.501,230.514 234,234.5C 236.326,236.066 238.492,237.732 240.5,239.5C 238.357,244.266 237.023,249.266 236.5,254.5C 235.167,254.5 233.833,254.5 232.5,254.5C 232.5,240.833 232.5,227.167 232.5,213.5 Z"/></g>
<g><path style="opacity:1" fill="#fed227" d="M 304.5,248.5 C 304.5,250.5 304.5,252.5 304.5,254.5C 289.5,254.5 274.5,254.5 259.5,254.5C 262.702,246.464 268.369,240.964 276.5,238C 285.644,236.081 293.977,237.748 301.5,243C 303.607,244.264 304.607,246.097 304.5,248.5 Z"/></g>
<g><path style="opacity:1" fill="#251d22" d="M 33.5,252.5 C 65.8333,252.5 98.1667,252.5 130.5,252.5C 137.628,254.345 144.961,255.012 152.5,254.5C 154.5,254.5 156.5,254.5 158.5,254.5C 162.833,254.5 167.167,254.5 171.5,254.5C 173.167,254.5 174.833,254.5 176.5,254.5C 181.167,254.5 185.833,254.5 190.5,254.5C 192.167,254.5 193.833,254.5 195.5,254.5C 199.833,254.5 204.167,254.5 208.5,254.5C 210.5,254.5 212.5,254.5 214.5,254.5C 218.833,254.5 223.167,254.5 227.5,254.5C 229.167,254.5 230.833,254.5 232.5,254.5C 233.833,254.5 235.167,254.5 236.5,254.5C 242.167,254.5 247.833,254.5 253.5,254.5C 255.5,254.5 257.5,254.5 259.5,254.5C 274.5,254.5 289.5,254.5 304.5,254.5C 228.525,255.05 152.525,256.05 76.5,257.5C 58.1667,257.333 39.8333,257.167 21.5,257C 20.6198,255.644 20.2865,254.144 20.5,252.5C 24.8333,252.5 29.1667,252.5 33.5,252.5 Z"/></g>
<g><path style="opacity:1" fill="#000000" d="M 426.5,254.5 C 426.586,255.496 426.252,256.329 425.5,257C 423.19,257.497 420.857,257.663 418.5,257.5C 398.167,257.5 377.833,257.5 357.5,257.5C 352.833,257.5 348.167,257.5 343.5,257.5C 334.161,257.666 324.827,257.5 315.5,257C 314.62,255.644 314.286,254.144 314.5,252.5C 351.502,252.333 388.502,252.5 425.5,253C 426.056,253.383 426.389,253.883 426.5,254.5 Z"/></g>
<g><path style="opacity:1" fill="#fb83b7" d="M 426.5,254.5 C 430.167,254.5 433.833,254.5 437.5,254.5C 437.5,254.833 437.5,255.167 437.5,255.5C 390.167,288.5 342.833,321.5 295.5,354.5C 295.724,350.821 296.058,347.154 296.5,343.5C 337.526,315.322 378.192,286.656 418.5,257.5C 420.857,257.663 423.19,257.497 425.5,257C 426.252,256.329 426.586,255.496 426.5,254.5 Z"/></g>
<g><path style="opacity:0.997" fill="#9264fe" d="M 437.5,255.5 C 435.352,271.539 433.018,287.539 430.5,303.5C 383.5,336.167 336.5,368.833 289.5,401.5C 291.259,385.76 293.259,370.093 295.5,354.5C 342.833,321.5 390.167,288.5 437.5,255.5 Z"/></g>
<g><path style="opacity:1" fill="#0e0813" d="M 303.5,285.5 C 303.448,289.198 303.114,292.865 302.5,296.5C 299.931,312.052 297.931,327.719 296.5,343.5C 296.058,347.154 295.724,350.821 295.5,354.5C 293.259,370.093 291.259,385.76 289.5,401.5C 288.514,405.443 287.848,409.443 287.5,413.5C 285.751,429.158 284.084,444.825 282.5,460.5C 281.598,463.997 280.931,467.663 280.5,471.5C 279.573,481.914 278.073,492.247 276,502.5C 274.667,503.833 273.333,503.833 272,502.5C 280.923,422.117 290.589,341.784 301,261.5C 301.307,258.124 303.14,256.79 306.5,257.5C 305.664,266.852 304.664,276.185 303.5,285.5 Z"/></g>
<g><path style="opacity:1" fill="#fa83b6" d="M 343.5,257.5 C 348.167,257.5 352.833,257.5 357.5,257.5C 339.468,270.856 321.134,283.856 302.5,296.5C 303.114,292.865 303.448,289.198 303.5,285.5C 317.133,276.523 330.466,267.19 343.5,257.5 Z"/></g>
<g><path style="opacity:1" fill="#9263fc" d="M 357.5,257.5 C 377.833,257.5 398.167,257.5 418.5,257.5C 378.192,286.656 337.526,315.322 296.5,343.5C 297.931,327.719 299.931,312.052 302.5,296.5C 321.134,283.856 339.468,270.856 357.5,257.5 Z"/></g>
<g><path style="opacity:1" fill="#fb83b6" d="M 430.5,303.5 C 430.058,307.154 429.724,310.821 429.5,314.5C 382.185,347.475 334.851,380.475 287.5,413.5C 287.848,409.443 288.514,405.443 289.5,401.5C 336.5,368.833 383.5,336.167 430.5,303.5 Z"/></g>
<g><path style="opacity:1" fill="#fef0b0" d="M 148.5,304.5 C 184.874,303.426 211.041,319.093 227,351.5C 238.968,388.48 229.801,418.98 199.5,443C 177.446,456.45 154.113,459.116 129.5,451C 92.2949,433.096 76.7949,403.596 83,362.5C 93.17,329.822 115.003,310.488 148.5,304.5 Z"/></g>
<g><path style="opacity:0.998" fill="#9264fe" d="M 429.5,314.5 C 426.799,330.408 424.465,346.408 422.5,362.5C 375.575,394.752 328.908,427.419 282.5,460.5C 284.084,444.825 285.751,429.158 287.5,413.5C 334.851,380.475 382.185,347.475 429.5,314.5 Z"/></g>
<g><path style="opacity:1" fill="#ff6437" d="M 211.5,380.5 C 175.167,380.5 138.833,380.5 102.5,380.5C 104.901,347.264 122.735,328.931 156,325.5C 185.12,327.284 203.453,342.284 211,370.5C 211.498,373.817 211.665,377.15 211.5,380.5 Z"/></g>
<g><path style="opacity:1" fill="#fb83b7" d="M 422.5,362.5 C 422.016,366.232 421.349,369.899 420.5,373.5C 373.833,406.167 327.167,438.833 280.5,471.5C 280.931,467.663 281.598,463.997 282.5,460.5C 328.908,427.419 375.575,394.752 422.5,362.5 Z"/></g>
<g><path style="opacity:1" fill="#ffa72e" d="M 102.5,380.5 C 138.833,380.5 175.167,380.5 211.5,380.5C 209.65,408.366 195.317,426.2 168.5,434C 133.955,437.778 112.122,422.945 103,389.5C 102.502,386.518 102.335,383.518 102.5,380.5 Z"/></g>
<g><path style="opacity:1" fill="#fb84b7" d="M 413.5,421.5 C 413.448,425.198 413.114,428.865 412.5,432.5C 374.778,458.354 337.445,484.687 300.5,511.5C 295.833,511.5 291.167,511.5 286.5,511.5C 328.62,481.267 370.953,451.267 413.5,421.5 Z"/></g>
<g><path style="opacity:0.997" fill="#9264fe" d="M 412.5,432.5 C 410.166,448.509 407.832,464.509 405.5,480.5C 390.474,490.344 375.808,500.678 361.5,511.5C 341.167,511.5 320.833,511.5 300.5,511.5C 337.445,484.687 374.778,458.354 412.5,432.5 Z"/></g>
<g><path style="opacity:1" fill="#fb83b7" d="M 405.5,480.5 C 405.058,484.154 404.724,487.821 404.5,491.5C 394.651,497.923 384.984,504.589 375.5,511.5C 370.833,511.5 366.167,511.5 361.5,511.5C 375.808,500.678 390.474,490.344 405.5,480.5 Z"/></g>
<g><path style="opacity:0.97" fill="#9464fd" d="M 404.5,491.5 C 403.44,496.415 402.606,501.415 402,506.5C 401.003,508.323 399.836,509.99 398.5,511.5C 390.833,511.5 383.167,511.5 375.5,511.5C 384.984,504.589 394.651,497.923 404.5,491.5 Z"/></g>
</svg>
